<svg xmlns="http://www.w3.org/2000/svg" xmlns:xlink="http://www.w3.org/1999/xlink" width="1580" zoomAndPan="magnify" viewBox="0 0 1185 449.999984" height="600" preserveAspectRatio="xMidYMid meet" version="1.0"><path fill="#ffffff" d="M 1090.34375 56.992188 L 1112.773438 56.992188 L 1069.003906 182.03125 L 1046.574219 182.03125 Z M 1090.34375 56.992188 " fill-opacity="1" fill-rule="nonzero"/><path fill="#ffffff" d="M 1179.722656 112.113281 L 1179.722656 132.550781 L 1114.257812 156.703125 L 1114.257812 137.363281 L 1156.566406 122.285156 L 1114.257812 107.300781 L 1114.257812 87.960938 Z M 1179.722656 112.113281 " fill-opacity="1" fill-rule="nonzero"/><path fill="#ffffff" d="M 73.074219 107.300781 L 30.671875 122.285156 L 73.074219 137.363281 L 73.074219 156.703125 L 7.609375 132.550781 L 7.609375 112.113281 L 73.074219 87.960938 Z M 73.074219 107.300781 " fill-opacity="1" fill-rule="nonzero"/><path fill="#1af38c" d="M 219.976562 16.945312 L 275.824219 16.945312 L 275.824219 170.226562 L 370.070312 170.226562 L 370.070312 214.542969 L 219.976562 214.542969 Z M 219.976562 16.945312 " fill-opacity="1" fill-rule="nonzero"/><path fill="#1af38c" d="M 550.402344 61.535156 L 550.402344 214.542969 L 499.371094 214.542969 L 499.371094 198.195312 C 493.671875 204.371094 486.863281 209.070312 478.945312 212.277344 C 471.074219 215.472656 462.714844 217.09375 453.878906 217.09375 C 434.132812 217.09375 418.375 211.28125 406.570312 199.65625 C 394.8125 187.980469 388.957031 170.453125 388.957031 147.074219 L 388.957031 61.535156 L 442.628906 61.535156 L 442.628906 138.363281 C 442.628906 149.804688 444.757812 158.152344 449.074219 163.417969 C 453.425781 168.6875 459.746094 171.328125 468.046875 171.328125 C 476.441406 171.328125 483.351562 168.390625 488.757812 162.511719 C 494.136719 156.589844 496.832031 147.503906 496.832031 135.269531 L 496.832031 61.535156 Z M 550.402344 61.535156 " fill-opacity="1" fill-rule="nonzero"/><path fill="#1af38c" d="M 650.089844 58.996094 C 675.441406 58.996094 694.792969 64.808594 708.113281 76.429688 C 721.480469 88.007812 728.1875 105.714844 728.1875 129.546875 L 728.1875 214.542969 L 678.242188 214.542969 L 678.242188 194.753906 C 670.539062 209.636719 655.492188 217.09375 633.109375 217.09375 C 621.238281 217.09375 610.976562 215.019531 602.320312 210.917969 C 593.652344 206.738281 587.117188 201.152344 582.710938 194.117188 C 578.28125 187.027344 576.085938 178.996094 576.085938 169.957031 C 576.085938 155.5 581.625 144.261719 592.703125 136.265625 C 603.828125 128.234375 620.964844 124.191406 644.097656 124.191406 L 674.605469 124.191406 C 673.628906 108.023438 662.824219 99.949219 642.183594 99.949219 C 634.785156 99.949219 627.34375 101.125 619.84375 103.492188 C 612.335938 105.851562 605.957031 109.101562 600.6875 113.203125 L 582.621094 76.792969 C 591.082031 71.164062 601.367188 66.800781 613.488281 63.71875 C 625.667969 60.582031 637.855469 58.996094 650.089844 58.996094 Z M 648.085938 183.222656 C 654.269531 183.222656 659.71875 181.738281 664.433594 178.769531 C 669.15625 175.746094 672.542969 171.304688 674.605469 165.425781 L 674.605469 152.160156 L 651.449219 152.160156 C 635.828125 152.160156 628.023438 157.335938 628.023438 167.691406 C 628.023438 172.414062 629.789062 176.199219 633.382812 179.039062 C 636.9375 181.828125 641.84375 183.222656 648.085938 183.222656 Z M 648.085938 183.222656 " fill-opacity="1" fill-rule="nonzero"/><path fill="#1af38c" d="M 861.742188 58.996094 C 880.742188 58.996094 896.023438 64.671875 907.601562 75.976562 C 919.15625 87.238281 924.945312 104.285156 924.945312 127.101562 L 924.945312 214.542969 L 871.269531 214.542969 L 871.269531 135.8125 C 871.269531 114.933594 862.921875 104.492188 846.214844 104.492188 C 836.945312 104.492188 829.527344 107.527344 823.964844 113.5625 C 818.449219 119.558594 815.695312 128.597656 815.695312 140.628906 L 815.695312 214.542969 L 762.125 214.542969 L 762.125 61.535156 L 813.15625 61.535156 L 813.15625 78.242188 C 819.195312 72.023438 826.34375 67.253906 834.589844 63.992188 C 842.871094 60.671875 851.933594 58.996094 861.742188 58.996094 Z M 861.742188 58.996094 " fill-opacity="1" fill-rule="nonzero"/><path fill="#ffffff" d="M 387.3125 336.582031 C 399.34375 336.582031 410.195312 339.808594 419.824219 346.210938 L 413.289062 360.019531 C 403.839844 354.277344 394.789062 351.386719 386.136719 351.386719 C 381.410156 351.386719 377.695312 352.246094 374.964844 353.9375 C 372.292969 355.566406 370.96875 357.921875 370.96875 361.015625 C 370.96875 364.097656 372.203125 366.738281 374.695312 368.910156 C 377.175781 371.097656 380.257812 372.707031 383.960938 373.726562 C 387.699219 374.769531 391.71875 376.058594 396.035156 377.632812 C 400.398438 379.152344 404.40625 380.785156 408.113281 382.539062 C 411.863281 384.238281 414.941406 386.933594 417.378906 390.617188 C 419.78125 394.253906 421.003906 398.691406 421.003906 403.960938 C 421.003906 412.09375 417.742188 418.585938 411.203125 423.492188 C 404.703125 428.351562 396.308594 430.75 385.953125 430.75 C 378.875 430.75 371.996094 429.4375 365.347656 426.753906 C 358.734375 424.101562 352.945312 420.535156 347.992188 416.035156 L 354.8125 402.421875 C 359.457031 406.78125 364.613281 410.132812 370.242188 412.503906 C 375.871094 414.859375 381.183594 416.035156 386.226562 416.035156 C 391.71875 416.035156 395.992188 415.039062 399.027344 413.046875 C 402.121094 411.050781 403.660156 408.277344 403.660156 404.6875 C 403.660156 401.558594 402.414062 398.875 399.945312 396.699219 C 397.441406 394.523438 394.335938 392.925781 390.585938 391.886719 C 386.882812 390.867188 382.871094 389.621094 378.511719 388.167969 C 374.195312 386.707031 370.175781 385.167969 366.4375 383.535156 C 362.730469 381.894531 359.640625 379.265625 357.167969 375.628906 C 354.675781 372.003906 353.441406 367.621094 353.441406 362.464844 C 353.441406 354.617188 356.535156 348.351562 362.707031 343.671875 C 368.929688 338.949219 377.152344 336.582031 387.3125 336.582031 Z M 387.3125 336.582031 " fill-opacity="1" fill-rule="nonzero"/><path fill="#ffffff" d="M 467.289062 359.011719 C 480.054688 359.011719 489.808594 362.894531 496.527344 370.632812 L 488.179688 380.445312 C 482.84375 375.0625 476.101562 372.410156 467.925781 372.457031 C 461.796875 372.457031 456.777344 374.585938 452.859375 378.8125 C 448.902344 382.992188 446.957031 388.417969 446.957031 395.066406 C 446.957031 401.671875 448.902344 407.097656 452.859375 411.324219 C 456.777344 415.492188 461.796875 417.589844 467.925781 417.589844 C 476.941406 417.589844 483.90625 414.769531 488.8125 409.136719 L 497.265625 417.589844 C 490.648438 426.367188 480.667969 430.75 467.289062 430.75 C 456.753906 430.75 448.179688 427.457031 441.597656 420.851562 C 434.992188 414.269531 431.695312 405.671875 431.695312 395.066406 C 431.695312 384.351562 434.992188 375.675781 441.597656 369.003906 C 448.179688 362.351562 456.753906 359.011719 467.289062 359.011719 Z M 467.289062 359.011719 " fill-opacity="1" fill-rule="nonzero"/><path fill="#ffffff" d="M 555.285156 359.011719 C 563.5 359.011719 569.921875 361.445312 574.53125 366.285156 C 579.1875 371.144531 581.523438 377.792969 581.523438 386.253906 L 581.523438 430.207031 L 566.273438 430.207031 L 566.273438 390.527344 C 566.273438 385.210938 564.757812 381.03125 561.730469 377.996094 C 558.753906 374.902344 554.605469 373.363281 549.292969 373.363281 C 543.121094 373.5 538.214844 375.605469 534.578125 379.71875 C 530.953125 383.851562 529.128906 389.074219 529.128906 395.429688 L 529.128906 430.207031 L 513.882812 430.207031 L 513.882812 331.6875 L 529.128906 331.6875 L 529.128906 373.363281 C 533.964844 363.800781 542.6875 359.011719 555.285156 359.011719 Z M 555.285156 359.011719 " fill-opacity="1" fill-rule="nonzero"/><path fill="#ffffff" d="M 666.019531 359.566406 L 666.019531 430.207031 L 650.757812 430.207031 L 650.757812 416.410156 C 646.148438 425.800781 637.777344 430.570312 625.609375 430.75 C 617.476562 430.75 611.121094 428.351562 606.535156 423.492188 C 601.921875 418.585938 599.636719 411.9375 599.636719 403.507812 L 599.636719 359.566406 L 614.984375 359.566406 L 614.984375 399.238281 C 614.984375 404.574219 616.433594 408.773438 619.335938 411.867188 C 622.246094 414.902344 626.269531 416.410156 631.421875 416.410156 C 637.347656 416.296875 642.035156 414.203125 645.492188 410.132812 C 648.992188 406.035156 650.757812 400.765625 650.757812 394.34375 L 650.757812 359.566406 Z M 666.019531 359.566406 " fill-opacity="1" fill-rule="nonzero"/><path fill="#ffffff" d="M 689.261719 331.6875 L 704.511719 331.6875 L 704.511719 430.207031 L 689.261719 430.207031 Z M 689.261719 331.6875 " fill-opacity="1" fill-rule="nonzero"/><path fill="#ffffff" d="M 781.609375 369.910156 L 741.203125 417.769531 L 782.789062 417.859375 L 782.789062 430.296875 L 722.410156 430.207031 L 722.410156 419.855469 L 762.726562 372.09375 L 723.585938 372.09375 L 723.585938 359.566406 L 781.609375 359.746094 Z M 781.609375 369.910156 " fill-opacity="1" fill-rule="nonzero"/></svg>